<svg width="24" height="24" viewBox="0 0 24 24" fill="none" xmlns="http://www.w3.org/2000/svg">
<path d="M21.0043 18.0139V11.7709C21.0043 11.1697 21.0038 10.8688 20.9307 10.5891C20.8659 10.3411 20.7595 10.1065 20.6156 9.89444C20.4532 9.65518 20.2274 9.45677 19.7749 9.06083L14.3736 4.33469C13.5334 3.59957 13.1134 3.2322 12.6406 3.09239C12.2241 2.9692 11.78 2.9692 11.3635 3.09239C10.8911 3.23209 10.4716 3.59912 9.63275 4.33313L4.22967 9.06083C3.77716 9.45677 3.55143 9.65518 3.38901 9.89445C3.24507 10.1065 3.1379 10.3411 3.07311 10.5891C3 10.8689 3 11.1696 3 11.7709V18.0139C3 19.0625 3 19.5866 3.17131 20.0002C3.39973 20.5516 3.83756 20.9903 4.389 21.2187C4.80259 21.39 5.3269 21.39 6.37552 21.39C7.42414 21.39 7.94903 21.39 8.36261 21.2187C8.91406 20.9903 9.35178 20.5517 9.58019 20.0003C9.7515 19.5867 9.75162 19.0624 9.75162 18.0138V16.8885C9.75162 15.6455 10.7592 14.6379 12.0022 14.6379C13.2451 14.6379 14.2527 15.6455 14.2527 16.8885V18.0138C14.2527 19.0624 14.2527 19.5867 14.424 20.0003C14.6524 20.5517 15.0903 20.9903 15.6417 21.2187C16.0553 21.39 16.5796 21.39 17.6282 21.39C18.6768 21.39 19.2017 21.39 19.6153 21.2187C20.1668 20.9903 20.6045 20.5516 20.8329 20.0002C21.0042 19.5866 21.0043 19.0625 21.0043 18.0139Z" stroke="black" stroke-width="1.5" stroke-linecap="round" stroke-linejoin="round"/>
</svg>
