<?xml version="1.0" encoding="UTF-8"?><svg id="Layer_2" xmlns="http://www.w3.org/2000/svg" xmlns:xlink="http://www.w3.org/1999/xlink" viewBox="0 0 604.05 202.49"><defs><linearGradient id="linear-gradient" x1=".06" y1="101.79" x2="594.32" y2="101.79" gradientUnits="userSpaceOnUse"><stop offset="0" stop-color="#000"/><stop offset="0" stop-color="#041513"/><stop offset=".01" stop-color="#09352e"/><stop offset=".02" stop-color="#0e5046"/><stop offset=".03" stop-color="#136659"/><stop offset=".05" stop-color="#167768"/><stop offset=".06" stop-color="#188372"/><stop offset=".08" stop-color="#198a78"/><stop offset=".14" stop-color="#1a8c7a"/><stop offset=".22" stop-color="#24a18f"/><stop offset=".31" stop-color="#2cb2a0"/><stop offset=".42" stop-color="#31beac"/><stop offset=".57" stop-color="#35c5b3"/><stop offset="1" stop-color="#36c7b5"/></linearGradient><linearGradient id="linear-gradient-2" x1="132.57" y1="117.83" x2="183.52" y2="117.83" gradientUnits="userSpaceOnUse"><stop offset="0" stop-color="#0a6656"/><stop offset=".29" stop-color="#1b8b7a"/><stop offset=".58" stop-color="#29ac9a"/><stop offset=".83" stop-color="#32bfad"/><stop offset="1" stop-color="#36c7b5"/></linearGradient><linearGradient id="linear-gradient-3" x1="-2.91" y1="176.88" x2="144.01" y2="132.07" gradientUnits="userSpaceOnUse"><stop offset=".08" stop-color="#36c7b5" stop-opacity="0"/><stop offset=".08" stop-color="#36c7b5" stop-opacity=".01"/><stop offset=".23" stop-color="#36c7b5" stop-opacity=".25"/><stop offset=".34" stop-color="#36c7b5" stop-opacity=".4"/><stop offset=".4" stop-color="#36c7b5" stop-opacity=".46"/><stop offset=".52" stop-color="#2ec1ad" stop-opacity=".54"/><stop offset=".74" stop-color="#1ab399" stop-opacity=".76"/><stop offset=".86" stop-color="#0eaa8c" stop-opacity=".9"/></linearGradient></defs><g id="Layer_1-2"><g><path d="m462.18,150.49h28.15l15.01-40.15c-8.63-1.29-17.2-2.41-25.83-3.39l-17.33,43.54Zm132.21-24.42c-5.79,7.01-15.83,10.37-24.64,7.83l6.2,16.59h28.1l-9.66-24.42Zm-15.36-38.85L545.63,2.79h-24.65l-30.48,76.56c8.4.98,16.8,2.09,25.18,3.32l17.47-46.76,19.79,52.98c3.39.63,6.76,1.29,10.14,1.97,4.67-3.06,10.41-4.38,15.95-3.64Zm-227.4-47.11c24-22.32,61.51-18.95,90.39.11V12.14c-49.75-29.78-132.41-3.43-131.92,64.14,8.95-.75,17.91-1.37,26.9-1.85.52-13.22,5.67-25.34,14.63-34.32Zm67.97,67.41v15.15c-24.62,11.78-63.65,4.94-75.94-19.86-9.38.49-18.75,1.15-28.1,1.96,16.93,47.56,86.88,62.1,127.73,33.29v-31.27c-.63.5-1.29.95-1.99,1.35-6.54,4.2-15.4,3.87-21.7-.62ZM245.1,2.78h-24.65l-33.72,84.69c6.39-1.31,13.19.28,18.46,4.07,2.39-.5,4.78-.99,7.18-1.46l20.25-54.18,17.73,47.47c8.39-1.29,16.8-2.46,25.24-3.5L245.1,2.78Zm-65.47,128.86c-.61-.36-2.11-1.05-3.19-2.12-1.56.51-3.15,1.05-4.75,1.62-1.09.39-2.16.77-3.21,1.17-2.27,6.06-4.54,12.12-6.82,18.18h28.15l6.05-16.19c-5.49,1.11-11.36.14-16.22-2.65Zm81.18-20.27l14.61,39.11h28.1l-16.88-42.68c-8.56,1.03-17.17,2.23-25.83,3.57Z"/><path d="m585.34,95.16c-6.8-4.26-16.01-3.25-22.01,2.38-38.74-7.84-78.41-13.17-117.91-15.84-2.55-5.32-7.62-8.68-13.63-9-6.01-.31-11.43,2.49-14.53,7.54-71.87-2.6-143.37,3.47-212.58,18.04-4.48-4.81-11.31-6.77-17.9-5.11-6.66,1.67-11.6,6.48-13.29,12.88-2.36.66-18.99,5.32-29.19,8.63-4.46-28.01-26.33-36.02-64.39-47.71-7.62-2.87-12.25-4.7-18.85-9.01-3.11-2.27-6.83-5.99-6.86-10.79-.11-15.35,19.75-19.55,26.75-19.82,16.54-1.87,42.17.83,59.95,14.63l.72.56.09-.9c.93-9.68,1.23-17.41,0-28.22l-.03-.24-.2-.13c-6.96-4.45-16-7.7-27.64-9.95-10.43-1.85-21.01-2.45-30.57-1.72-23.01.78-49.97,14.29-54.63,37.79-5.52,24.08,11.13,35.42,29.96,44.1,4.86,1.97,10.57,3.81,16.62,5.75,21.32,6.85,45.48,14.62,43.95,32.09-.73.26-1.6.58-2.55.92-3.44,1.25-8.15,2.96-11.88,4.11-37.15,11.49-69.89,31.22-78.43,37.23C6.37,177.35-1.42,185.92.29,192c-.13,2.21,1.12,4.14,3.7,5.74,5,3.1,14.75,4.76,26.75,4.76,22.21,0,52.13-5.71,73.83-18.6,25.68-15.82,33.49-29.05,39.5-49.33,10.25-4.21,22.51-8.28,33.72-11.19,4.6,5.05,11.66,6.99,18.5,5.05,6.82-1.93,11.8-7.27,13.07-13.97,67.5-14.93,137.13-21.24,206.95-18.75,2.46,5.42,7.7,8.97,13.75,9.3,6.08.33,11.68-2.65,14.72-7.79,38.06,2.66,76.04,8.06,112.9,16.06.63,5.93,4.41,11.13,10.16,13.97,5.85,2.88,12.39,2.64,17.48-.64,5.63-3.09,8.99-8.97,8.99-15.72,0-6.75-3.36-12.62-8.98-15.72ZM34.61,180.05c25.88-17.19,50.5-28.91,81.49-37.86-4.45,7.43-14.71,16.04-31.05,25.32-21.24,11.1-43.81,12.41-50.43,12.55Z" style="fill:url(#linear-gradient);"/><path d="m209.55,108.7c-1.26-10.33-9.47-15.45-17.04-15.96-6.12-.41-13.07,2.11-16.92,8.37-.88,1.45-1.61,3.09-2.12,4.95-2.34.65-18.98,5.32-29.19,8.62-.05-.32-.1-.64-.16-.95-4.8-27.23-26.6-35.2-64.23-46.76-7.62-2.86-12.26-4.7-18.85-9-3.11-2.27-6.83-5.99-6.87-10.79-.11-15.35,19.75-19.56,26.75-19.82,16.54-1.88,42.17.83,59.95,14.62l.71.56.09-.9c.93-9.68,1.23-17.41,0-28.23l-.03-.23-.2-.13c-6.95-4.45-15.99-7.7-27.64-9.95-10.43-1.85-21.01-2.45-30.57-1.72-23.01.78-49.98,14.29-54.63,37.79-5.52,24.08,11.12,35.42,29.96,44.1,4.85,1.97,10.56,3.81,16.61,5.75,21.33,6.86,44.04,14.74,43.95,32.1t-.08.03c-.72.25-1.55.55-2.48.89-3.44,1.25-8.15,2.96-11.87,4.11-37.15,11.49-69.89,31.22-78.43,37.23C6.35,177.34-1.43,185.91.28,191.99c-.05.82.09,1.6.43,2.34.55,1.26,1.65,2.4,3.27,3.4,5,3.1,14.75,4.76,26.75,4.76,22.21,0,52.12-5.7,73.83-18.59,25.68-15.83,36.04-30.89,39.5-49.34.02-.01.04-.02.06-.02,10.24-4.21,22.48-8.27,33.66-11.17,1.76,1.85,3.78,3.27,5.97,4.25,4.72,2.11,10.17,2.14,15.19-.14,7.35-3.35,11.52-10.72,10.61-18.78Zm-124.53,58.8c-20.13,10.53-41.48,12.25-49.28,12.52-.42.01-.81.02-1.15.03,24.74-16.43,48.05-27.51,77.13-36.26l.33-.11s2.71-.99,4.04-1.49c-.04.06-.5.81-.54.87-4.5,7.38-14.31,15.23-30.53,24.44Z"/><path d="m585.32,95.12l-.46-.26c-5.5-3.15-12.34-3.15-17.84,0l-.46.26c-1.15.66-2.24,1.46-3.24,2.39-38.74-7.84-78.41-13.17-117.91-15.84-1.34-2.8-3.46-5.11-6.13-6.67l-.54-.32c-4.81-2.81-10.79-2.81-15.61,0l-.54.32c-2.17,1.27-4.01,3.07-5.34,5.21-71.85-2.6-143.38,3.47-212.58,18.04-1.19-1.24-2.54-2.29-4-3.13l-.46-.26c-5.5-3.15-12.34-3.15-17.84,0l-.46.26c-5.57,3.19-9.04,9.16-9.04,15.58v.27c0,6.42,3.46,12.39,9.04,15.58l.46.26c2.75,1.58,5.84,2.36,8.92,2.36s6.17-.79,8.92-2.36l.46-.26c4.54-2.6,7.69-7.01,8.69-12.14,26.09-5.74,52.13-10.19,77.4-13.23,42.81-5.21,86.4-7.07,129.56-5.53,1.33,2.94,3.49,5.35,6.28,6.98l.55.32c4.81,2.82,10.79,2.81,15.6,0l.55-.32c2.26-1.32,4.16-3.21,5.5-5.47,13.74.97,27.35,2.27,40.46,3.86,24.08,2.9,48.45,7.01,72.45,12.2.71,5.57,4.01,10.53,8.88,13.32l.46.26c5.5,3.15,12.34,3.15,17.84,0l.46-.26c5.57-3.19,9.04-9.16,9.04-15.58v-.27c0-6.42-3.46-12.39-9.04-15.58Z" style="fill:#36c7b5;"/><path d="m186.73,126.16l-3.03,1.46c-2.19-.98-4.21-2.4-5.97-4.25-11.18,2.9-23.42,6.96-33.66,11.17.42-2.97.73-6.42.74-10.24,0-3.96-.55-9.79-.53-9.63,10.21-3.3,26.8-7.95,29.14-8.6.51-1.86,1.24-3.5,2.12-4.95l11.19,25.05Z" style="fill:url(#linear-gradient-2);"/><path d="m116.09,142.19c-4.06,1.63-8.64,2.96-14.32,4.88-16.62,5.61-28.7,11.28-32.03,12.87-9.81,4.67-21.93,11.17-35.2,20.12.34-.01-33.88,14.28-33.88,14.28-.34-.74-.48-1.52-.43-2.34-1.71-6.08,6.07-14.65,25.98-28.61,8.54-6.01,41.28-25.74,78.43-37.23.51-.16,5.33-1.81,11.87-4.11,1.11-.39,2.01-.71,2.61-.92.32,4.08.23,9.39-1.23,15.32-.52,2.1-1.14,4.02-1.8,5.75Z" style="fill:url(#linear-gradient-3);"/></g></g></svg>