<?xml version="1.0" encoding="UTF-8"?><svg id="Layer_2" xmlns="http://www.w3.org/2000/svg" xmlns:xlink="http://www.w3.org/1999/xlink" viewBox="0 0 604.11 202.72"><defs><linearGradient id="linear-gradient" x1=".2" y1="101.78" x2="594.32" y2="101.78" gradientUnits="userSpaceOnUse"><stop offset="0" stop-color="#000"/><stop offset="0" stop-color="#041513"/><stop offset=".01" stop-color="#09352e"/><stop offset=".02" stop-color="#0e5046"/><stop offset=".03" stop-color="#136659"/><stop offset=".05" stop-color="#167768"/><stop offset=".06" stop-color="#188372"/><stop offset=".08" stop-color="#198a78"/><stop offset=".14" stop-color="#1a8c7a"/><stop offset=".22" stop-color="#24a18f"/><stop offset=".31" stop-color="#2cb2a0"/><stop offset=".42" stop-color="#31beac"/><stop offset=".57" stop-color="#35c5b3"/><stop offset="1" stop-color="#36c7b5"/></linearGradient><linearGradient id="linear-gradient-2" x1="132.63" y1="117.83" x2="183.58" y2="117.83" gradientUnits="userSpaceOnUse"><stop offset="0" stop-color="#8cedda"/><stop offset=".22" stop-color="#71e1ce"/><stop offset=".55" stop-color="#50d2c0"/><stop offset=".82" stop-color="#3dcab8"/><stop offset="1" stop-color="#36c7b5"/></linearGradient><linearGradient id="linear-gradient-3" x1="-2.85" y1="176.88" x2="144.07" y2="132.07" gradientUnits="userSpaceOnUse"><stop offset="0" stop-color="#f5fcfc" stop-opacity="0"/><stop offset=".1" stop-color="#effbfa" stop-opacity=".02"/><stop offset=".21" stop-color="#e0faf7" stop-opacity=".07"/><stop offset=".32" stop-color="#c6f9f0" stop-opacity=".15"/><stop offset=".43" stop-color="#a3f7e8" stop-opacity=".27"/><stop offset=".45" stop-color="#9af7e6" stop-opacity=".3"/><stop offset=".48" stop-color="#94f4e3" stop-opacity=".33"/><stop offset=".76" stop-color="#5ae0c6" stop-opacity=".67"/><stop offset=".9" stop-color="#44d8bb" stop-opacity=".8"/></linearGradient></defs><g id="Layer_1-2"><g><path d="m462.24,150.49h28.15l15.01-40.15c-8.63-1.29-17.2-2.41-25.83-3.39l-17.33,43.54Zm132.21-24.42c-5.79,7.01-15.83,10.37-24.64,7.83l6.2,16.59h28.1l-9.66-24.42Zm-15.36-38.85L545.69,2.79h-24.65l-30.48,76.56c8.4.98,16.8,2.09,25.18,3.32l17.47-46.76,19.79,52.98c3.39.63,6.76,1.29,10.14,1.97,4.67-3.06,10.41-4.38,15.95-3.64Zm-227.4-47.11c24-22.32,61.51-18.95,90.39.11V12.14c-49.75-29.78-132.41-3.43-131.92,64.14,8.95-.75,17.91-1.37,26.9-1.85.52-13.22,5.67-25.34,14.63-34.32Zm67.97,67.41v15.15c-24.62,11.78-63.65,4.94-75.94-19.86-9.38.49-18.75,1.15-28.1,1.96,16.93,47.56,86.88,62.1,127.73,33.29v-31.27c-.63.5-1.29.95-1.99,1.35-6.54,4.2-15.4,3.87-21.7-.62ZM245.16,2.78h-24.65l-33.72,84.69c6.39-1.31,13.19.28,18.46,4.07,2.39-.5,4.78-.99,7.18-1.46l20.25-54.18,17.73,47.47c8.39-1.29,16.8-2.46,25.24-3.5L245.16,2.78Zm-65.47,128.86c-.61-.36-2.11-1.05-3.19-2.12-2.61.85-5.37,1.81-7.97,2.78-2.27,6.06-4.54,12.12-6.82,18.18h28.15l6.05-16.19c-5.49,1.11-11.36.14-16.22-2.65Zm81.18-20.27l14.61,39.11h28.1l-16.88-42.68c-8.56,1.03-17.17,2.23-25.83,3.57Z" style="fill:#f5fcfc;"/><path d="m585.4,95.17c-6.8-4.26-16.01-3.25-22.01,2.38-38.74-7.84-78.41-13.16-117.91-15.84-5.07-11.25-21.94-12.12-28.16-1.46-71.85-2.6-143.34,3.47-212.52,18.03-.02,0-.04.01-.06.01-5-5.44-13.27-7.15-20.3-4.35-.01,0-.03.01-.04.02-4.65,1.83-8.25,5.34-10.09,9.84-.31.73-.56,1.48-.76,2.26h-.01s-.07.02-.11.03h-.01c-.06.02-.12.04-.2.05-.37.12-.79.23-1.18.34-.02,0-.05,0-.06.01-.07.02-.14.04-.21.07-.02,0-.05,0-.06.01-.07.02-.15.04-.23.07-.96.27-1.96.54-2.94.83h0c-.38.11-.78.22-1.19.34-.01,0-.03,0-.05.01-7.55,2.18-15.5,4.46-22.94,6.87v-.03c-1.53-10.25-6.3-19.6-14.36-26.11-14.36-11.42-32.76-15.95-50.03-21.57h-.01c-5.23-1.99-8.83-3.34-13.08-5.59h-.01c-1.09-.59-2.2-1.22-3.36-1.92t-.01,0c-.77-.46-1.56-.96-2.38-1.5h-.01c-1.17-.84-2.46-1.96-3.52-3.14,0,0-.01,0-.01-.01-3.52-3.48-4.15-8.98-2.31-13.41,0,0-.01,0,0-.01,1.72-4.46,5.56-7.69,9.73-9.81h.01c3.1-1.6,6.51-2.69,9.9-3.42h.01c20.01-3.6,48.4-.34,66.73,14.37,1-10.07,1.37-18.19.06-29.36-11.45-7.75-32.61-12-48.32-12.08-.02-.01-.04-.01-.06,0-2.02-.03-4.01-.01-5.97.06-.01-.01-.02-.01-.03,0-29.11-.16-63.05,18.36-59.43,51.26,0,0-.01,0,0,.01.28,1.94.73,3.78,1.35,5.51,0,0-.01,0,0,.01.36.99.75,1.94,1.22,2.88,0,.01.01.01.01.01.64,1.32,1.37,2.56,2.21,3.76,0,0,.01,0,.01,0,6.25,8.76,15.53,13.77,25.93,18.66h.01c19.86,8.54,62.22,14.58,60.56,37.85h-.01c-.17.06-.39.14-.57.21-.65.22-1.28.46-1.98.71h-.01c-16.96,5.89-34.54,11.38-50.75,19.36h-.01C48.38,149.3-2.97,177.24.36,192c-.01.21-.01.42,0,.62-.01.04-.01.08,0,.11.06.55.18,1.09.41,1.59h.01c6.14,10.49,36.74,8.35,47.88,7.08,21.14-2.63,42.71-8.5,60.59-20.44,0,0,.01-.02.02-.02,18.27-11.28,30.1-27.38,34.85-46.35t.01-.02c6.79-2.79,13.78-5.26,20.8-7.49.01-.01.03-.01.05-.01,4.22-1.32,8.56-2.56,12.82-3.68.02,0,.03-.01.05-.01,9.6,10.86,29.09,5.45,31.57-8.92,67.51-14.93,137.13-21.24,206.95-18.75,5.09,11.63,22.18,12.52,28.47,1.51,38.06,2.66,76.05,8.06,112.9,16.06,1.03,12.46,17.27,20.37,27.65,13.33,11.9-6.16,11.91-25.28,0-31.44Zm-469.42,47.31c-5.42,9.9-25.93,23.75-40.36,29.34-13.02,5.13-27.44,7.85-40.94,8.23.77-.52,1.53-1.02,2.3-1.52,24.84-16.25,49.17-27.7,79.18-36.34-.02.02-.09.14-.18.29Z" style="fill:url(#linear-gradient);"/><path d="m209.87,108.67c-.53-5.51-3.6-10.37-8.41-13.34-5.16-3.18-11.54-3.79-17.09-1.64h-.08s-.03.04-.03.04c-5.17,1.8-9.54,6.65-10.93,12.11-.04.01-.09.03-.19.05l-.12.04s-.1.03-.14.05h-.05c-.16.05-.34.1-.52.16l-.16.04s-.1.03-.16.05l-.08.02c-.06.02-.13.04-.19.06-.03,0-.08.01-.12.03h0c-.05.01-.11.03-.17.05l-.1.02c-.43.12-.85.24-1.28.36-.52.15-1.04.3-1.57.44l-.19.06h0c-7.81,2.24-16.06,4.62-23.73,7.08-3.93-27.79-29.02-36.03-53.28-44-8.77-2.88-17.05-5.6-24.29-9.19l-.05-.02c-1.13-.6-2.21-1.22-3.3-1.89l-.17-.1h0c-.69-.41-1.41-.87-2.21-1.39l-.05-.03c-1.21-.87-2.43-1.97-3.38-3.01l-.13-.14h0c-3.23-3.26-4.12-8.5-2.19-13.07l.15-.35h-.01c1.94-4.7,6.17-7.65,9.43-9.32l.05-.02c21.98-9.55,56.25-4.65,76.39,10.92l.36.28.04-.45c1.02-10.22,1.36-18.31.06-29.41v-.11s-.11-.06-.11-.06C133.05,7.02,113.6.94,93.42.85l-.09-.03-.06.03c-1.96-.04-3.92-.02-5.83.06l-.11-.09-.1.09c-.16,0-.32,0-.48,0-18.8,0-37.95,7.8-48.91,19.97-7.99,8.87-11.52,19.77-10.21,31.51l-.04.11.06.06c.27,1.88.71,3.69,1.32,5.39l-.03.08.08.07c.36,1,.75,1.92,1.19,2.8v.2h.1c.57,1.17,1.26,2.35,2.12,3.59v.18h.13c6.43,8.96,15.93,13.92,25.91,18.62l.06.03c4.53,1.88,10.05,3.65,15.9,5.53,19.75,6.33,44.31,14.21,44.49,31.9h-.01c-.12.05-.24.09-.4.15l-.36.13c-.51.18-1.03.36-1.56.56h-.05c-2.81.99-5.65,1.96-8.5,2.93-14.15,4.82-28.79,9.81-42.23,16.43l-.06.02C46.63,150.07-2.47,176.54.1,191.97c-.04.85.11,1.69.47,2.48,3.99,6.59,17.12,8.26,29.39,8.26,7.23,0,14.15-.58,18.73-1.07,24.5-3.06,44.92-9.95,60.7-20.48l.06-.04h0c19.04-11.75,32.72-29.94,34.9-46.39,6.33-2.59,13.08-5.02,20.65-7.42h.05c4.65-1.46,8.8-2.66,12.71-3.67,1.72,1.78,3.71,3.19,5.91,4.18l.05.04h.05c5.98,2.75,13.15,1.9,18.71-2.23,5.54-4.11,8.3-10.45,7.39-16.97Zm-94.29,33.96c-12.2,18.02-47.01,37.06-80.08,37.17,22.89-15.5,47.65-26.99,80.08-37.17Z" style="fill:#f5fcfc;"/><path d="m585.39,95.12c-6.8-4.26-16.01-3.25-22.01,2.38-38.74-7.84-78.41-13.17-117.91-15.84-2.62-5.34-7.69-8.71-13.62-9.02-5.96-.32-11.36,2.51-14.53,7.56-71.86-2.6-143.38,3.47-212.59,18.04-5.28-5.55-13-7.23-20.22-4.37-7.21,2.86-11.65,9.41-11.59,17.09-.11,6.4,3.32,12.25,9.19,15.65,3,1.74,6.24,2.61,9.42,2.61s6.04-.8,8.72-2.4c4.74-2.55,8.15-7.17,9.17-12.41,67.5-14.93,137.13-21.24,206.96-18.75,2.56,5.52,7.67,9,13.75,9.33,6.08.32,11.57-2.59,14.71-7.82,38.06,2.66,76.04,8.06,112.9,16.06.62,5.83,4.31,10.98,9.93,13.85,5.7,2.91,12.16,2.81,17.25-.26,5.83-3.03,9.37-8.91,9.47-15.74.1-6.81-3.26-12.78-8.99-15.97Z" style="fill:#36c7b5;"/><path d="m186.79,126.16l-3.03,1.46c-2.19-.98-4.21-2.4-5.97-4.25-11.18,2.9-23.42,6.96-33.66,11.17.42-2.97.73-6.42.74-10.24,0-3.96-.55-9.79-.53-9.63,10.21-3.3,26.8-7.95,29.14-8.6.51-1.86,1.24-3.5,2.12-4.95l11.19,25.05Z" style="fill:url(#linear-gradient-2);"/><path d="m116.15,142.19c-36.02,12.2-52.25,18.61-81.55,37.87.34-.01-33.88,14.28-33.88,14.28-.34-.74-.48-1.52-.43-2.34-1.71-6.08,6.07-14.65,25.98-28.61,8.54-6.01,41.28-25.74,78.43-37.23-.29.15,9.84-3.4,14.48-5.03.62,5.28-.42,14.89-3.03,21.07Z" style="fill:url(#linear-gradient-3);"/></g></g></svg>