<?xml version="1.0" encoding="UTF-8"?><svg id="Layer_2" xmlns="http://www.w3.org/2000/svg" xmlns:xlink="http://www.w3.org/1999/xlink" viewBox="0 0 220 220"><defs><linearGradient id="linear-gradient" x1="137.89" y1="125.92" x2="188.58" y2="125.92" gradientUnits="userSpaceOnUse"><stop offset="0" stop-color="#8cedda"/><stop offset=".22" stop-color="#71e1ce"/><stop offset=".55" stop-color="#50d2c0"/><stop offset=".82" stop-color="#3dcab8"/><stop offset="1" stop-color="#36c7b5"/></linearGradient><linearGradient id="linear-gradient-2" x1="-2.48" y1="194.94" x2="133.07" y2="133.69" gradientUnits="userSpaceOnUse"><stop offset=".05" stop-color="#f5fcfc" stop-opacity="0"/><stop offset=".12" stop-color="#d9faf5" stop-opacity=".09"/><stop offset=".22" stop-color="#b6f8ec" stop-opacity=".21"/><stop offset=".31" stop-color="#a1f7e7" stop-opacity=".28"/><stop offset=".38" stop-color="#9af7e6" stop-opacity=".3"/><stop offset=".43" stop-color="#8cf2df" stop-opacity=".38"/><stop offset=".57" stop-color="#6de6cf" stop-opacity=".56"/><stop offset=".7" stop-color="#56dec4" stop-opacity=".69"/><stop offset=".81" stop-color="#48d9bd" stop-opacity=".77"/><stop offset=".9" stop-color="#44d8bb" stop-opacity=".8"/></linearGradient></defs><g id="Layer_1-2"><g><path d="m214.85,116.9c-.38-3.98-2.09-7.61-4.82-10.44,0-.01-.01-.02-.03-.03-1.04-1.08-2.24-2.04-3.56-2.86-5.16-3.18-11.55-3.79-17.09-1.64h-.08s-.03.05-.03.05c-5.17,1.8-9.54,6.64-10.93,12.11-.04.01-.08.03-.19.05l-.12.03s-.09.03-.14.05h-.06c-.16.05-.34.1-.51.16l-.16.04c-.05.01-.1.03-.16.05h-.08c-.06.03-.13.05-.19.07-.03,0-.08.02-.12.04h0c-.06.01-.11.03-.17.05l-.11.02c-.42.12-.85.24-1.27.36-.52.15-1.04.3-1.57.44l-.19.06c-7.81,2.24-16.06,4.62-23.73,7.08-3.93-27.79-29.02-36.03-53.28-44-8.77-2.88-17.05-5.6-24.29-9.19l-.04-.02c-1.14-.6-2.22-1.22-3.31-1.89l-.17-.1h-.01c-.69-.42-1.41-.87-2.2-1.4l-.05-.02c-1.2-.87-2.43-1.97-3.38-3.01l-.13-.15h-.01c-3.23-3.26-4.11-8.5-2.19-13.07l.15-.35h-.02c1.95-4.7,6.17-7.65,9.43-9.32l.05-.02c21.98-9.55,56.25-4.65,76.39,10.92l.35.28.05-.45c1.02-10.22,1.36-18.31.06-29.42v-.11s-.11-.06-.11-.06c-8.79-5.96-28.25-12.03-48.43-12.13l-.09-.03-.06.03c-1.96-.04-3.92-.02-5.82.06l-.11-.09-.11.09h-.47c-18.81,0-37.95,7.8-48.91,19.97-7.99,8.87-11.52,19.77-10.21,31.51l-.03.1.05.06c.27,1.88.71,3.69,1.32,5.39l-.02.08.08.08c.36,1,.75,1.92,1.18,2.8v.19h.1c.57,1.17,1.27,2.35,2.12,3.6v.17h.13c6.44,8.96,15.93,13.93,25.92,18.62l.05.03c4.53,1.89,10.06,3.66,15.91,5.53,19.75,6.34,44.31,14.21,44.49,31.91h-.01c-.12.04-.24.09-.41.15l-.36.13c-.51.18-1.03.36-1.57.56l-.04.02c-2.81.97-5.65,1.94-8.5,2.91-14.15,4.82-28.79,9.81-42.23,16.43l-.05.03c-19.14,8.89-68.24,35.37-65.67,50.8-.04.85.11,1.69.47,2.48,3.99,6.59,17.12,8.26,29.39,8.26,7.22,0,14.15-.58,18.73-1.07,24.5-3.05,44.93-9.94,60.7-20.48l.06-.04c9.52-5.87,17.7-13.36,23.77-21.43,6.08-8.07,10.04-16.72,11.13-24.95,6.33-2.59,13.08-5.02,20.65-7.43h.05c4.65-1.46,8.81-2.65,12.71-3.67,1.72,1.78,3.71,3.19,5.91,4.18l.1.04c5.98,2.75,13.15,1.9,18.71-2.22,3.89-2.88,6.41-6.88,7.25-11.26v-.03c.36-1.84.41-3.76.14-5.69Zm-94.29,33.97c-12.21,18.02-47.01,37.06-80.09,37.16,22.89-15.49,47.65-26.98,80.09-37.16Z" style="fill:#f5fcfc;"/><path d="m178.31,114.09c1.39-5.47,5.76-10.31,10.93-12.11l.03-.04h.08c5.54-2.16,11.93-1.55,17.09,1.63,1.32.82,2.52,1.78,3.56,2.86.02.01.03.02.03.03,2.73,2.83,4.44,6.46,4.82,10.44.27,1.93.22,3.85-.14,5.69v.03c-.84,4.38-3.36,8.38-7.25,11.26-5.56,4.12-12.73,4.97-18.71,2.22l-.04-.02-.06-.02c-2.2-.99-4.19-2.4-5.91-4.18-1.18-1.39-3.24-4.19-4.28-8.31-1.06-4.2-.54-7.7-.15-9.48Z" style="fill:#36c7b5;"/><path d="m191.77,134.4l-3.12,1.66c-2.19-.98-4.15-2.33-5.91-4.18-6.05,1.6-12.43,3.5-19.07,5.77-5.04,1.72-9.82,3.51-14.34,5.33.18-1.2.39-2.85.54-4.8.31-3.99.2-7.07.12-9.21-.06-1.7-.19-3.86-.45-6.38,0,0,14.89-4.77,28.77-8.5,1.86-.5,1.3-3.8,2.34-5.23l11.12,25.54Z" style="fill:url(#linear-gradient);"/><path d="m120.56,150.87c-36.02,12.2-50.7,18.58-80.23,37.24.29-.18-34.88,14.28-34.88,14.28-.34-.74-.48-1.52-.43-2.34-.66-7.28,7.38-15.81,25.98-28.61,8.6-5.92,41.28-25.74,78.43-37.23-.29.15,9.84-3.4,14.48-5.03.62,5.28-.74,15.52-3.35,21.7Z" style="fill:url(#linear-gradient-2);"/></g><rect width="220" height="220" style="fill:none;"/></g></svg>