<?xml version="1.0" encoding="UTF-8"?><svg id="Layer_2" xmlns="http://www.w3.org/2000/svg" viewBox="0 0 208.62 200.36"><g id="Layer_1-2"><path d="m208.5,107.18c-2.38-19.48-30.27-21.15-35.17-2.3,0,0-19.03,5.29-30.01,8.88-4.18-28.06-25.94-36.16-64.16-47.9-7.51-2.83-12.21-4.66-18.97-9.07-2.85-2.08-7.03-5.94-7.07-11.19-.12-16.89,22.42-20.14,27.19-20.32,17.23-1.95,42.82,1.15,60.31,14.73.86-8.96,1.27-16.93,0-28.12-8.14-5.2-18.15-8.08-27.46-9.88C97.78-.72,86.11.04,82.69.3c-23.92.81-49.66,14.7-54.16,37.4-5.57,24.3,11.73,35.26,29.66,43.53,22.16,8.99,63.26,15.51,60.84,38.67-3.32,1.18-9.85,3.63-14.75,5.15-39.74,12.29-72.73,33.25-78.29,37.16C7.7,175.04-1.6,184.21.23,190.36c-1.08,14.51,64.82,14.51,103.51-8.47,26.64-16.41,33.68-30.03,39.35-49.28,9.96-4.11,22.4-8.3,34.2-11.35l.08-.05c11.76,12.79,33.08,3.3,31.13-14.03ZM21.52,186.59s0-.02.01-.02c0,0,.02-.03.04-.05-.02.04-.04.06-.05.07Zm63.19-20.23c-20.24,10.58-42.97,12.7-52.34,12.62,29.4-19.72,54.96-30.42,84.07-38.73-4.59,8.65-16.7,17.58-31.73,26.11Z"/></g></svg>