<?xml version="1.0" encoding="UTF-8"?><svg id="Layer_2" xmlns="http://www.w3.org/2000/svg" viewBox="0 0 562.62 158.14"><g id="Layer_1-2"><g><path d="m553.87,111.31c0-6.01-3.2-11.55-8.4-14.56l-.58-.34c-5.2-3-11.61-3-16.81,0l-.58.34c-1.91,1.1-3.55,2.55-4.86,4.24-39.42-8.02-79.38-13.38-119.5-16.06-1.22-2.75-3.26-5.11-5.91-6.72h-.01c-4.76-2.89-10.73-2.89-15.5,0h-.01c-2.2,1.34-3.98,3.19-5.22,5.35-71.39-2.64-143.06,3.25-213.02,17.97-1.38-1.74-3.1-3.23-5.09-4.36l-.93-.53c-5.36-3.04-11.92-3.04-17.28,0l-.93.53c-5.5,3.11-8.9,8.94-8.9,15.26v.47c0,6.32,3.4,12.15,8.9,15.26l.93.53c5.36,3.04,11.92,3.04,17.28,0l.93-.53c4.29-2.43,7.29-6.51,8.41-11.18,25.91-5.73,52.08-10.29,78.44-13.45,43.23-5.26,86.9-7.1,130.43-5.5,1.2,2.89,3.3,5.38,6.06,7.06h.01c4.76,2.89,10.73,2.89,15.5,0h.01c2.3-1.4,4.13-3.35,5.37-5.63,13.77.96,27.53,2.25,41.23,3.91,25.47,3.07,50.79,7.42,75.83,12.95,1.13,4.27,3.92,7.98,7.84,10.25l.58.34c5.2,3,11.61,3,16.81,0l.58-.34c5.2-3,8.4-8.55,8.4-14.56v-.67Z" style="fill:#36c7b5; stroke:#36c7b5; stroke-miterlimit:10;"/><g><path d="m443.23,108.31c7.11.86,14.24,1.82,21.37,2.88l-15.72,42.07h-28.12l18.06-45.47c1.47.17,2.94.34,4.41.52Z" style="fill:#020504;"/><path d="m536.48,89c-3.85,0-7.66,1.01-10.99,2.94l-.58.34c-1.56.9-2.98,1.98-4.25,3.21-2.79-.56-5.57-1.1-8.36-1.63l-20.62-55.17-18.18,48.66c-8.4-1.22-16.82-2.32-25.25-3.31l31.16-78.48,24.69-.15,33.09,83.6c-.23-.01-.47-.01-.71-.01Z" style="fill:#020504;"/><path d="m562.62,153.26h-28.12l-7.97-21.34c3.07,1.57,6.49,2.39,9.95,2.39,3.85,0,7.65-1.02,10.99-2.95l.58-.33c1.63-.95,3.12-2.09,4.43-3.39l10.14,25.62Z" style="fill:#020504;"/><path d="m399.55,108.93c-3.04,1.84-6.53,2.82-10.09,2.82s-7.04-.98-10.09-2.83c-.43-.26-.84-.53-1.24-.83v17.35l-.3.13c-7.81,3.51-18.19,5.52-28.48,5.52-21.93,0-39.64-10.72-48.23-27.46-9.28.5-18.55,1.16-27.8,1.98,11.06,29.54,40.53,50.15,76.03,50.15,19.52,0,37.17-5.02,52.47-14.92v-33.53c-.71.59-1.47,1.13-2.27,1.62ZM348.3,3.15c-21.65,0-41.81,7.98-56.75,22.48-14.79,14.33-22.93,33.45-22.93,53.82,0,.53,0,1.07.02,1.6,8.92-.75,17.87-1.37,26.83-1.85.06-13.99,5.27-26.89,14.68-36.32,9.68-9.71,23.23-15.06,38.15-15.06s35.47,2.57,51.65,14.78l.6-.6V14.92c-12.75-8.03-29.37-11.77-52.25-11.77Z" style="fill:#020504;"/><path d="m155.19,135.12l-6.78,18.14h-28.12l10.25-25.82c1.71,2.04,3.79,3.79,6.17,5.14l.94.53c3.39,1.92,7.25,2.94,11.15,2.94,2.17,0,4.32-.32,6.39-.93Z" style="fill:#020504;"/><path d="m234.95,84.56c-8.46,1.03-16.89,2.2-25.29,3.49l-18.45-49.36-21.05,56.34c-1.62.33-3.23.66-4.85.99-1.33-1.26-2.8-2.38-4.43-3.3l-.93-.53c-3.4-1.92-7.25-2.93-11.15-2.93-1.07,0-2.14.08-3.19.23L178.94,5.56l24.68-.15,31.33,79.15Z" style="fill:#020504;"/><path d="m262.15,153.26h-28.12l-15.34-41.03c8.65-1.36,17.25-2.56,25.79-3.6l17.67,44.63Z" style="fill:#020504;"/><path d="m110.93,110.41c0,.67-.01,1.35-.04,2.04-.53,12.73-6.6,24.46-17.09,33.03-10.68,8.75-24.77,13.24-39.68,12.6-24.6-1.03-43.71-13.74-51.14-34.02-.02-.05-1.89-5.23-2.98-11.46,7.19-.08,20.52.2,25.58.32,6.38,14.31,16.03,21.53,29.5,22.09,7.72.3,14.43-1.76,19.43-5.99,5.12-4.32,7.98-10.45,8.29-17.74.6-14.49-15.07-22.43-31.69-30.86-19.96-10.09-40.6-20.54-39.67-42.99.45-10.74,5.48-20.47,14.15-27.4C34.3,3.08,45.88-.46,58.23.05c12.9.53,24.84,4.88,32.77,11.91,4.98,4.43,8.21,9.58,8.81,10.57,2.38,3.95,4.14,8.22,5.22,12.72l-26.41.05c-5.21-6.1-11.43-11.77-21.44-12.19-.3-.01-.6-.02-.9-.02-9.78,0-16.35,6.09-16.74,15.51-.39,9.23,10.89,14.59,25.19,21.38,20.63,9.81,46.2,21.97,46.2,50.43Z" style="fill:#020504;"/></g></g></g></svg>